<svg xmlns="http://www.w3.org/2000/svg" xmlns:xlink="http://www.w3.org/1999/xlink" width="2048" zoomAndPan="magnify" viewBox="0 0 1536 1535.999932" height="2048" preserveAspectRatio="xMidYMid meet" version="1.0"><defs><clipPath id="b635b4843a"><path d="M 199.339844 34.449219 L 1336.339844 34.449219 L 1336.339844 1501.449219 L 199.339844 1501.449219 Z M 199.339844 34.449219 " clip-rule="nonzero"/></clipPath></defs><g clip-path="url(#b635b4843a)"><path fill="#000000" d="M 1336.339844 1390.644531 C 1336.339844 999.179688 1081.609375 682.023438 767.839844 682.023438 C 454.070312 682.023438 199.34375 999.179688 199.34375 1390.644531 C 199.34375 1451.6875 454.070312 1501.449219 767.839844 1501.449219 C 1081.609375 1501.449219 1336.339844 1451.6875 1336.339844 1390.644531 Z M 767.839844 34.449219 C 938.988281 34.449219 1077.628906 173.121094 1077.628906 344.304688 C 1077.628906 515.488281 938.988281 654.160156 767.839844 654.160156 C 596.695312 654.160156 458.050781 515.488281 458.050781 344.304688 C 458.050781 173.121094 596.695312 34.449219 767.839844 34.449219 Z M 767.839844 34.449219 " fill-opacity="1" fill-rule="evenodd"/></g></svg>